<svg width="140" height="50" viewBox="0 0 140 50" fill="none" xmlns="http://www.w3.org/2000/svg">
<g clip-path="url(#clip0_12_1661)">
<path d="M16.0719 6.25H0.827148V42.7083L16.0719 6.25Z" fill="#E6E6E6"/>
<path d="M26.7988 6.25H42.0237V42.7083L26.7988 6.25Z" fill="#E6E6E6"/>
<path d="M21.434 19.6875L31.137 42.7086H24.771L21.871 35.3792H14.77L21.434 19.6875Z" fill="#E6E6E6"/>
<path d="M66.8936 29.4343L68.6912 34.5887C68.7508 34.7178 68.8401 34.7774 68.999 34.7774H72.4552C72.6439 34.7774 72.6737 34.688 72.6439 34.4993L65.5032 14.6662C65.4734 14.5073 65.4436 14.4775 65.2847 14.4775H60.9943C60.8751 14.4775 60.8056 14.5669 60.8056 14.696C60.746 15.7388 60.6566 16.0566 60.5275 16.3645L54.1615 34.4695C54.1317 34.688 54.2012 34.7774 54.38 34.7774H57.4686C57.6573 34.7774 57.7467 34.7178 57.8162 34.5291L59.5145 29.4343H66.8936ZM60.4977 26.0675C61.4313 23.247 62.6628 19.632 63.1594 17.5662H63.1891C63.8049 19.7313 65.2549 24.0217 65.9104 26.0675H60.4977Z" fill="#E6E6E6"/>
<path d="M81.8234 35.0843C83.6806 35.0843 85.6569 34.7467 87.6631 33.8826C87.822 33.823 87.8518 33.7535 87.8518 33.6046C87.7922 33.0484 87.7227 32.244 87.7227 31.6282V12.9571C87.7227 12.8379 87.7227 12.7783 87.5737 12.7783H84.207C84.0779 12.7783 84.0183 12.8379 84.0183 12.9968V19.3231C83.4919 19.2636 83.1244 19.2338 82.6874 19.2338C77.2549 19.2338 73.918 22.819 73.918 27.2981C73.918 32.4922 77.3443 35.0843 81.8234 35.0843ZM84.0183 31.6282C83.4621 31.807 82.8463 31.8765 82.2207 31.8765C79.7577 31.8765 77.7416 30.4861 77.7416 27.1094C77.7416 24.12 79.8173 22.3522 82.5683 22.3522C83.1244 22.3522 83.6111 22.4118 84.0183 22.5707V31.6282Z" fill="#E6E6E6"/>
<path d="M98.5917 19.2334C93.9537 19.2334 91.0835 22.7889 91.0835 27.1786C91.0835 31.1015 93.3677 35.084 98.5221 35.084C102.882 35.084 105.941 31.8761 105.941 27.0792C105.941 22.8484 103.349 19.2334 98.5917 19.2334ZM98.403 22.3519C101.025 22.3519 102.137 24.6063 102.137 27.1786C102.137 30.3566 100.499 31.9357 98.5917 31.9357C96.2379 31.9357 94.8475 29.9594 94.8475 27.109C94.8475 24.1793 96.3273 22.3519 98.403 22.3519Z" fill="#E6E6E6"/>
<path d="M109.422 12.7783C109.293 12.7783 109.204 12.8379 109.204 12.9968V34.1309C109.204 34.2203 109.293 34.3792 109.422 34.409C110.902 34.8659 112.451 35.0843 114.05 35.0843C118.629 35.0843 123.078 32.244 123.078 26.5234C123.078 22.382 120.237 19.2338 115.788 19.2338C114.765 19.2338 113.812 19.3927 112.978 19.6707L112.938 13.0266C112.938 12.8081 112.878 12.7783 112.66 12.7783H109.422ZM119.274 26.9008C119.274 30.3272 116.93 31.9361 114.398 31.9361C113.871 31.9361 113.405 31.9063 112.978 31.7772V22.7594C113.464 22.5707 114.05 22.4118 115.133 22.4118C117.576 22.4118 119.274 23.9611 119.274 26.9008Z" fill="#E6E6E6"/>
<path d="M135.643 28.0128C137.153 28.0128 138.394 27.983 138.821 27.8837C138.98 27.8539 139.04 27.7943 139.07 27.6652C139.159 27.3275 139.199 26.6224 139.199 25.7584C139.199 22.8187 137.431 19.2334 132.862 19.2334C128.195 19.2334 125.603 23.0371 125.603 27.3275C125.603 31.1313 127.609 35.084 133.23 35.084C135.335 35.084 136.696 34.7463 137.868 34.1902C137.987 34.1306 138.047 34.0313 138.047 33.8525V31.2802C138.047 31.1313 137.957 31.1015 137.868 31.1611C136.696 31.6576 135.425 31.9059 134.034 31.9059C130.886 31.9059 129.456 30.1679 129.367 28.0128H135.643ZM129.367 25.3512C129.615 23.8416 130.568 22.2029 132.704 22.2029C135.057 22.2029 135.673 24.1793 135.673 25.0731C135.673 25.1029 135.673 25.232 135.673 25.3214C135.544 25.3512 135.147 25.3512 133.975 25.3512H129.367Z" fill="#E6E6E6"/>
</g>
<defs>
<clipPath id="clip0_12_1661">
<rect width="138.542" height="50" fill="white" transform="translate(0.827148)"/>
</clipPath>
</defs>
</svg>
