<svg width="115" height="21" viewBox="0 0 115 21" fill="none" xmlns="http://www.w3.org/2000/svg">
<path fill-rule="evenodd" clip-rule="evenodd" d="M66.1017 4.25379V1.66189C66.1017 1.26963 66.3996 1.00646 66.7571 1.00646H78.3611C78.7335 1.00646 79.0314 1.27459 79.0314 1.66189V3.88139C79.0264 4.25379 78.7136 4.74039 78.1575 5.51002L72.1445 14.0951C74.3789 14.0405 76.7374 14.3731 78.7633 15.5152C79.2201 15.7733 79.3442 16.1507 79.379 16.5231V19.2888C79.379 19.6662 78.9619 20.1081 78.5249 19.8797C74.9549 18.0077 70.213 17.8042 66.2655 19.8995C65.8633 20.118 65.4413 19.6811 65.4413 19.3037V16.677C65.4413 16.255 65.4463 15.535 65.8683 14.8945L72.8347 4.90425H66.772C66.3996 4.90425 66.1017 4.64109 66.1017 4.25379Z" fill="#E6E6E6"/>
<path fill-rule="evenodd" clip-rule="evenodd" d="M23.7722 20.4259H20.2419C19.9042 20.4011 19.6361 20.1478 19.6113 19.8251V1.70661C19.6113 1.34415 19.9142 1.05615 20.2915 1.05615H23.5835C23.9261 1.07104 24.1992 1.33421 24.2241 1.66192V4.03039H24.2886C25.1476 1.74137 26.7613 0.673823 28.9362 0.673823C31.1457 0.673823 32.5261 1.74137 33.5191 4.03039C34.3732 1.74137 36.3146 0.673823 38.3951 0.673823C39.8748 0.673823 41.4935 1.28456 42.4816 2.65499C43.5988 4.17934 43.3704 6.39388 43.3704 8.33532L43.3654 19.7705C43.3654 20.1329 43.0625 20.4259 42.6852 20.4259H39.1598C38.8072 20.4011 38.5242 20.118 38.5242 19.7705V10.1675C38.5242 9.40287 38.5937 7.49618 38.4249 6.77124C38.1617 5.55474 37.3723 5.21213 36.3494 5.21213C35.4954 5.21213 34.6016 5.78314 34.2391 6.69677C33.8767 7.61039 33.9114 9.1397 33.9114 10.1675V19.7705C33.9114 20.1329 33.6085 20.4259 33.2312 20.4259H29.7058C29.3483 20.4011 29.0702 20.118 29.0702 19.7705L29.0653 10.1675C29.0653 8.14664 29.3979 5.17241 26.8904 5.17241C24.3532 5.17241 24.4525 8.07216 24.4525 10.1675V19.7705C24.4525 20.1329 24.1496 20.4259 23.7722 20.4259Z" fill="#E6E6E6"/>
<path fill-rule="evenodd" clip-rule="evenodd" d="M89.0215 0.673823C94.2599 0.673823 97.0951 5.17241 97.0951 10.8925C97.0951 16.4189 93.962 20.8033 89.0215 20.8033C83.8774 20.8033 81.077 16.3047 81.077 10.6988C81.077 5.05821 83.9122 0.673823 89.0215 0.673823ZM89.0513 4.37299C86.4495 4.37299 86.2856 7.91823 86.2856 10.1278C86.2856 12.3423 86.2508 17.0693 89.0215 17.0693C91.7574 17.0693 91.8865 13.256 91.8865 10.9322C91.8865 9.40287 91.8219 7.57563 91.3602 6.12575C90.9629 4.86456 90.1735 4.37299 89.0513 4.37299Z" fill="#E6E6E6"/>
<path fill-rule="evenodd" clip-rule="evenodd" d="M103.888 20.4259H100.372C100.02 20.4011 99.7368 20.118 99.7368 19.7705L99.7319 1.64703C99.7617 1.31435 100.055 1.05615 100.412 1.05615H103.684C103.992 1.07104 104.245 1.27959 104.315 1.56262V4.33327H104.379C105.368 1.85557 106.753 0.673823 109.191 0.673823C110.775 0.673823 112.319 1.24484 113.312 2.80891C114.236 4.25879 114.236 6.69676 114.236 8.44952V19.8549C114.196 20.1727 113.903 20.4259 113.555 20.4259H110.015C109.692 20.4011 109.424 20.1627 109.389 19.8549V10.0136C109.389 8.03244 109.618 5.13269 107.18 5.13269C106.321 5.13269 105.531 5.70867 105.139 6.58256C104.643 7.68983 104.578 8.79213 104.578 10.0136V19.7705C104.573 20.1329 104.265 20.4259 103.888 20.4259Z" fill="#E6E6E6"/>
<path fill-rule="evenodd" clip-rule="evenodd" d="M56.8513 11.7713C56.8513 13.1467 56.8861 14.2937 56.1909 15.5152C55.6298 16.5082 54.7361 17.119 53.748 17.119C52.3924 17.119 51.598 16.0862 51.598 14.5618C51.598 11.5528 54.2942 11.0066 56.8513 11.0066V11.7713ZM60.4114 20.3762C60.1781 20.5848 59.8404 20.5997 59.5773 20.4606C58.4054 19.4874 58.1919 19.0356 57.5514 18.1071C55.6149 20.0833 54.2395 20.6741 51.732 20.6741C48.7578 20.6741 46.4489 18.8419 46.4489 15.1726C46.4489 12.3076 47.9981 10.3562 50.2127 9.40284C52.1293 8.55873 54.8056 8.40977 56.8513 8.1764V7.71959C56.8513 6.88045 56.9158 5.88738 56.4193 5.16245C55.9923 4.51199 55.168 4.24386 54.4381 4.24386C53.0925 4.24386 51.8959 4.93404 51.6029 6.36405C51.5434 6.68184 51.31 6.99465 50.9872 7.00955L47.5661 6.64211C47.2781 6.57757 46.9554 6.34419 47.0398 5.90228C47.8243 1.75127 51.5781 0.5 54.9347 0.5C56.6527 0.5 58.897 0.956811 60.2525 2.25773C61.9705 3.86153 61.8067 6.00159 61.8067 8.33033V13.8319C61.8067 15.4854 62.4919 16.2103 63.1374 17.1041C63.3608 17.4218 63.4105 17.8042 63.1225 18.0425C62.4025 18.6433 61.1215 19.7605 60.4164 20.3861L60.4114 20.3762Z" fill="#E6E6E6"/>
<path fill-rule="evenodd" clip-rule="evenodd" d="M10.5694 11.7713C10.5694 13.1467 10.6041 14.2937 9.90896 15.5151C9.34788 16.5082 8.45909 17.1189 7.46602 17.1189C6.11049 17.1189 5.321 16.0862 5.321 14.5618C5.321 11.5528 8.01717 11.0066 10.5694 11.0066V11.7713ZM14.1295 20.3762C13.8961 20.5847 13.5585 20.5996 13.2953 20.4606C12.1235 19.4874 11.915 19.0356 11.2695 18.107C9.33298 20.0832 7.96256 20.6741 5.4501 20.6741C2.48083 20.6741 0.166992 18.8419 0.166992 15.1725C0.166992 12.3075 1.72114 10.3562 3.93071 9.40283C5.84732 8.55872 8.52364 8.40977 10.5694 8.1764V7.71959C10.5694 6.88044 10.6339 5.88738 10.1423 5.16244C9.71035 4.51198 8.88611 4.24386 8.16117 4.24386C6.81557 4.24386 5.61396 4.93404 5.321 6.36405C5.26142 6.68183 5.02805 6.99465 4.71027 7.00954L1.28419 6.64211C0.996201 6.57756 0.67842 6.34419 0.757865 5.90228C1.54735 1.75127 5.29617 0.5 8.65274 0.5C10.3707 0.5 12.6151 0.956811 13.9706 2.25773C15.6886 3.86153 15.5247 6.00158 15.5247 8.33032V13.8319C15.5247 15.4854 16.21 16.2103 16.8555 17.1041C17.0839 17.4218 17.1335 17.8042 16.8455 18.0425C16.1255 18.6433 14.8445 19.7605 14.1394 20.3861L14.1295 20.3762Z" fill="#E6E6E6"/>
</svg>
