<svg width="12" height="12" viewBox="0 0 12 12" fill="none" xmlns="http://www.w3.org/2000/svg">
<path d="M7.99976 4C8.79541 4 9.55847 4.31607 10.1211 4.87868C10.6837 5.44129 10.9998 6.20435 10.9998 7V10.5H8.99976V7C8.99976 6.73478 8.8944 6.48043 8.70686 6.29289C8.51933 6.10536 8.26497 6 7.99976 6C7.73454 6 7.48019 6.10536 7.29265 6.29289C7.10511 6.48043 6.99976 6.73478 6.99976 7V10.5H4.99976V7C4.99976 6.20435 5.31583 5.44129 5.87844 4.87868C6.44104 4.31607 7.20411 4 7.99976 4Z" fill="white"/>
<path d="M3 4.5H1V10.5H3V4.5Z" fill="white"/>
<path d="M2 3C2.55228 3 3 2.55228 3 2C3 1.44772 2.55228 1 2 1C1.44772 1 1 1.44772 1 2C1 2.55228 1.44772 3 2 3Z" fill="white"/>
</svg>
