<svg width="126" height="45" viewBox="0 0 126 45" fill="none" xmlns="http://www.w3.org/2000/svg">
<path fill-rule="evenodd" clip-rule="evenodd" d="M1.0826 44.1752C1.0826 44.1752 1.08244 44.1754 1.24141 44.3204C1.29829 44.5279 1.29844 44.5279 1.29844 44.5279L1.30998 44.5247L1.34533 44.5151L1.48443 44.4778C1.60673 44.4452 1.78701 44.3976 2.01852 44.3378C2.48155 44.2181 3.14944 44.0495 3.96815 43.8541C5.60582 43.4632 7.84579 42.9652 10.2561 42.5363C12.6673 42.1073 15.2443 41.7482 17.5574 41.6339C19.8789 41.5192 21.903 41.6531 23.2276 42.1876L23.3886 41.7885C21.9714 41.2166 19.8662 41.0889 17.5362 41.2041C15.1976 41.3197 12.6008 41.682 10.1807 42.1126C7.75979 42.5434 5.51127 43.0434 3.86824 43.4355C3.04661 43.6316 2.37611 43.8008 1.91083 43.9211C1.90018 43.9238 1.88962 43.9266 1.87918 43.9293C1.9693 43.8272 2.0709 43.7115 2.18289 43.5832C2.67331 43.0211 3.36313 42.2162 4.16131 41.2437C5.75705 39.2995 7.78856 36.6826 9.5257 33.9976C11.2586 31.3192 12.7153 28.548 13.137 26.3005C13.3482 25.1753 13.3055 24.1526 12.8785 23.3349C12.4468 22.5082 11.6427 21.9298 10.4171 21.6573L10.3237 22.0774C11.4575 22.3295 12.1378 22.8461 12.4971 23.5341C12.8611 24.2313 12.9163 25.143 12.714 26.2211C12.3089 28.3802 10.8935 31.0912 9.16437 33.7638C7.43955 36.4298 5.41924 39.0328 3.82866 40.9707C3.03368 41.9392 2.34671 42.7409 1.85864 43.3002C1.61461 43.5799 1.42033 43.7989 1.28717 43.9479C1.22059 44.0224 1.16929 44.0794 1.1347 44.1177L1.09551 44.161L1.0826 44.1752ZM1.24141 44.3204L1.29844 44.5279L0.581742 44.7243L1.0826 44.1752L1.24141 44.3204Z" fill="white"/>
<path fill-rule="evenodd" clip-rule="evenodd" d="M66.5157 5.95382C46.2586 11.4697 27.0232 21.3663 13.6556 34.8281L13.961 35.1313C27.2621 21.7365 46.4237 11.8707 66.6288 6.36905C86.8339 0.867388 108.061 -0.264209 125.484 3.78752L125.581 3.36835C108.074 -0.703022 86.7729 0.43797 66.5157 5.95382Z" fill="white"/>
</svg>
