<svg width="127" height="50" viewBox="0 0 127 50" fill="none" xmlns="http://www.w3.org/2000/svg">
<g clip-path="url(#clip0_12_1650)">
<path d="M40.3033 33.7806L41.8325 30.2061C43.507 31.4462 45.691 32.1025 47.8756 32.1025C49.4774 32.1025 50.4966 31.4827 50.4966 30.5345C50.4601 27.9083 40.8494 29.9508 40.7763 23.3481C40.7397 19.9924 43.7252 17.4027 47.9487 17.4027C50.4601 17.4027 52.9725 18.023 54.7561 19.4458L53.327 23.0964C51.686 22.0412 49.6591 21.3056 47.7299 21.3056C46.4194 21.3056 45.5453 21.9253 45.5453 22.7283C45.5819 25.318 55.2662 23.8953 55.3753 30.2061C55.3753 33.6349 52.4624 36.0424 48.3121 36.0424C45.2545 36.0424 42.4513 35.313 40.3027 33.7806H40.3033ZM101.197 28.9118C100.811 29.5977 100.25 30.1685 99.5701 30.5658C98.8907 30.9631 98.1178 31.1725 97.3308 31.1726C94.8779 31.1726 92.8896 29.1802 92.8896 26.7226C92.8896 24.2649 94.8779 22.2725 97.3308 22.2725C98.1178 22.2726 98.8907 22.482 99.5701 22.8793C100.25 23.2766 100.811 23.8474 101.197 24.5333L105.449 22.1733C103.856 19.3272 100.819 17.4027 97.3308 17.4027C92.1936 17.4027 88.0292 21.575 88.0292 26.7226C88.0292 31.8696 92.1936 36.0424 97.3308 36.0424C100.819 36.0424 103.856 34.1179 105.449 31.2718L101.197 28.9118ZM58.1342 35.6774H63.4494V9.64453H58.1347L58.1342 35.6774ZM108.133 9.64453V35.6774H113.448V27.878L119.746 35.6774H126.54L118.531 26.4119L125.958 17.7661H119.455L113.448 24.9541V9.64453H108.133ZM79.8246 17.7672V19.8833C78.9511 18.424 76.8031 17.4027 74.546 17.4027C69.8861 17.4027 66.2093 21.5248 66.2093 26.7043C66.2093 31.8837 69.8861 36.0424 74.546 36.0424C76.8031 36.0424 78.9511 35.0211 79.8246 33.5618V35.6774H85.1398V17.7672H79.8246ZM79.8246 28.9478C79.0602 30.2244 77.4584 31.1721 75.6748 31.1721C73.2214 31.1721 71.2331 29.1802 71.2331 26.7226C71.2331 24.2649 73.2214 22.2725 75.6748 22.2725C77.4584 22.2725 79.0602 23.2572 79.8246 24.5699V28.9478Z" fill="#E6E6E6"/>
<path d="M12.2343 9.06641C10.5118 9.06641 9.11568 10.4657 9.11568 12.1913C9.11527 12.6012 9.19561 13.0073 9.35211 13.3862C9.50861 13.7651 9.73821 14.1095 10.0278 14.3996C10.3174 14.6898 10.6613 14.9201 11.0399 15.0774C11.4185 15.2346 11.8243 15.3158 12.2343 15.3162H15.3534V12.1913C15.3541 11.3633 15.0259 10.5689 14.441 9.98293C13.856 9.39692 13.0623 9.06724 12.2343 9.06641ZM12.2343 17.3994H3.91745C2.19498 17.3994 0.798828 18.7987 0.798828 20.5248C0.798828 22.2505 2.19498 23.6497 3.91745 23.6497H12.2348C13.9568 23.6497 15.3534 22.2505 15.3534 20.5248C15.3534 18.7987 13.9568 17.3994 12.2343 17.3994Z" fill="#E6E6E6"/>
<path d="M31.9863 20.5248C31.9863 18.7987 30.5896 17.3994 28.8671 17.3994C27.1446 17.3994 25.7485 18.7987 25.7485 20.5248V23.6497H28.8671C29.6951 23.6489 30.4889 23.3192 31.0738 22.7332C31.6587 22.1472 31.987 21.3528 31.9863 20.5248ZM23.6694 20.5248V12.1913C23.6701 11.3633 23.3419 10.5689 22.7569 9.98293C22.172 9.39691 21.3783 9.06724 20.5503 9.06641C18.8278 9.06641 17.4316 10.4657 17.4316 12.1913V20.5243C17.4316 22.251 18.8278 23.6503 20.5503 23.6503C21.3783 23.6494 22.172 23.3197 22.7569 22.7337C23.3419 22.1477 23.6701 21.3534 23.6694 20.5254" fill="#E6E6E6"/>
<path d="M20.5503 40.3177C21.3783 40.3169 22.172 39.9872 22.7569 39.4012C23.3419 38.8152 23.6701 38.0208 23.6694 37.1928C23.6701 36.3648 23.3419 35.5705 22.7569 34.9845C22.172 34.3984 21.3783 34.0688 20.5503 34.0679H17.4316V37.1928C17.4316 38.9184 18.8278 40.3177 20.5503 40.3177ZM20.5503 31.9847H28.8676C30.5896 31.9847 31.9863 30.5854 31.9863 28.8593C31.987 28.0313 31.6587 27.2369 31.0738 26.6509C30.4889 26.0649 29.6951 25.7352 28.8671 25.7344H20.5503C18.8278 25.7344 17.4316 27.1337 17.4316 28.8593C17.4312 29.2692 17.5116 29.6752 17.6681 30.0541C17.8246 30.4331 18.0542 30.7774 18.3438 31.0676C18.6334 31.3578 18.9773 31.5881 19.3559 31.7453C19.7345 31.9026 20.1403 31.9837 20.5503 31.9842" fill="#E6E6E6"/>
<path d="M0.79883 28.8593C0.798418 29.2692 0.878757 29.6752 1.03526 30.0541C1.19176 30.4331 1.42136 30.7774 1.71096 31.0676C2.00055 31.3578 2.34446 31.5881 2.72305 31.7453C3.10164 31.9026 3.5075 31.9837 3.91745 31.9842C4.74544 31.9833 5.5392 31.6536 6.12414 31.0676C6.70907 30.4816 7.03729 29.6873 7.0366 28.8593V25.7344H3.91745C2.19498 25.7344 0.79883 27.1337 0.79883 28.8593ZM9.11568 28.8593V37.1923C9.11568 38.9184 10.5118 40.3177 12.2343 40.3177C13.0623 40.3169 13.856 39.9872 14.441 39.4012C15.0259 38.8152 15.3541 38.0208 15.3534 37.1928V28.8593C15.3539 28.4493 15.2735 28.0432 15.117 27.6643C14.9604 27.2853 14.7308 26.9409 14.4411 26.6507C14.1515 26.3606 13.8075 26.1303 13.4289 25.9731C13.0502 25.8158 12.6443 25.7347 12.2343 25.7344C10.5118 25.7344 9.11568 27.1337 9.11568 28.8593Z" fill="#E6E6E6"/>
</g>
<defs>
<clipPath id="clip0_12_1650">
<rect width="126.042" height="50" fill="white" transform="translate(0.798584)"/>
</clipPath>
</defs>
</svg>
