<svg width="147" height="44" viewBox="0 0 147 44" fill="none" xmlns="http://www.w3.org/2000/svg">
<path d="M22.5773 0.207031C10.4961 0.207031 0.701904 10.001 0.701904 22.0822C0.701904 34.1639 10.4961 43.957 22.5773 43.957C34.6598 43.957 44.453 34.1639 44.453 22.0822C44.453 10.0018 34.6598 0.208076 22.5771 0.208076L22.5773 0.207031ZM32.6092 31.7572C32.2174 32.3999 31.3763 32.6036 30.7337 32.2092C25.5975 29.0719 19.1318 28.3614 11.5172 30.1011C10.7835 30.2683 10.052 29.8085 9.88486 29.0745C9.71689 28.3405 10.1748 27.6091 10.9104 27.4419C19.2434 25.5381 26.3911 26.3578 32.1573 29.8817C32.7999 30.2761 33.0037 31.1146 32.6092 31.7572ZM35.2867 25.8009C34.793 26.6034 33.7429 26.8568 32.941 26.363C27.0609 22.7488 18.0976 21.7021 11.1426 23.8133C10.2406 24.0857 9.28797 23.5774 9.01421 22.677C8.74254 21.775 9.25114 20.8241 10.1516 20.5498C18.0961 18.1393 27.9726 19.307 34.7251 23.4564C35.5271 23.9501 35.7805 25.0003 35.2867 25.8012V25.8009ZM35.5166 19.5985C28.4663 15.4109 16.8341 15.0258 10.1027 17.0688C9.02179 17.3967 7.87868 16.7864 7.55111 15.7055C7.22354 14.6241 7.83323 13.4817 8.91495 13.1531C16.6421 10.8074 29.4876 11.2606 37.6048 16.0793C38.5792 16.6564 38.8979 17.912 38.3206 18.883C37.7459 19.8553 36.4868 20.1758 35.5177 19.5985H35.5166ZM60.2177 20.4009C56.4404 19.5003 55.7691 18.8681 55.7691 17.5398C55.7691 16.2849 56.9498 15.4404 58.7078 15.4404C60.411 15.4404 62.0984 16.0817 63.8695 17.4019C63.9218 17.4418 63.9897 17.4578 64.055 17.4473C64.1229 17.4374 64.1804 17.4011 64.2196 17.3465L66.0638 14.7468C66.1395 14.6397 66.1186 14.4921 66.0168 14.4104C63.9087 12.7195 61.5368 11.8974 58.7627 11.8974C54.685 11.8974 51.8351 14.3448 51.8351 17.8465C51.8351 21.6015 54.2932 22.9311 58.5406 23.9575C62.1533 24.79 62.7646 25.4874 62.7646 26.734C62.7646 28.1158 61.5316 28.9752 59.5463 28.9752C57.3416 28.9752 55.5418 28.2308 53.5304 26.491C53.4808 26.4466 53.4129 26.4283 53.3502 26.431C53.2822 26.4362 53.2222 26.4675 53.1804 26.5172L51.1115 28.9779C51.0253 29.0823 51.0357 29.2339 51.135 29.3227C53.4756 31.4124 56.3542 32.5148 59.4627 32.5148C63.8565 32.5148 66.6959 30.1142 66.6959 26.397C66.7038 23.2605 64.8256 21.5234 60.2255 20.4043L60.2177 20.4009ZM76.638 16.6759C74.7337 16.6759 73.1716 17.4262 71.8812 18.9634V17.2331C71.8812 17.0965 71.7715 16.9852 71.6356 16.9852H68.2528C68.117 16.9852 68.0073 17.0965 68.0073 17.2331V36.4592C68.0073 36.5951 68.117 36.7074 68.2528 36.7074H71.6356C71.7715 36.7074 71.8812 36.5951 71.8812 36.4592V30.3911C73.1716 31.8356 74.7337 32.5435 76.638 32.5435C80.1775 32.5435 83.7615 29.819 83.7615 24.6105C83.7667 19.401 80.1828 16.6757 76.6406 16.6757L76.638 16.6759ZM79.8275 24.6105C79.8275 27.2616 78.1949 29.1137 75.8543 29.1137C73.5425 29.1137 71.7976 27.1781 71.7976 24.6105C71.7976 22.0427 73.5425 20.1076 75.8543 20.1076C78.1557 20.1073 79.8275 22.0007 79.8275 24.6103V24.6105ZM92.9434 16.6759C88.3851 16.6759 84.8142 20.1857 84.8142 24.6672C84.8142 29.1006 88.3616 32.5723 92.8885 32.5723C97.4625 32.5723 101.044 29.0745 101.044 24.6105C101.044 20.1617 97.486 16.6765 92.9434 16.6765V16.6759ZM92.9434 29.1398C90.5193 29.1398 88.6907 27.1911 88.6907 24.6092C88.6907 22.0156 90.4566 20.1335 92.8885 20.1335C95.3283 20.1335 97.1673 22.0814 97.1673 24.6659C97.1673 27.259 95.391 29.1398 92.9434 29.1398ZM110.777 16.9852H107.055V13.1803C107.055 13.0439 106.945 12.9327 106.809 12.9327H103.426C103.29 12.9327 103.178 13.0439 103.178 13.1803V16.9852H101.553C101.417 16.9852 101.308 17.0965 101.308 17.2331V20.1397C101.308 20.2761 101.417 20.3876 101.553 20.3876H103.178V27.9095C103.178 30.9475 104.69 32.4887 107.676 32.4887C108.888 32.4887 109.894 32.2379 110.842 31.6998C110.921 31.658 110.968 31.5744 110.968 31.4856V28.7166C110.968 28.6331 110.923 28.5521 110.85 28.5077C110.777 28.4606 110.686 28.458 110.61 28.4972C109.959 28.8237 109.33 28.9752 108.624 28.9752C107.54 28.9752 107.055 28.4815 107.055 27.3792V20.3889H110.777C110.913 20.3889 111.022 20.2776 111.022 20.141V17.2347C111.028 17.0981 110.918 16.9868 110.78 16.9868L110.777 16.9852ZM123.744 17.0001V16.5328C123.744 15.158 124.272 14.5449 125.452 14.5449C126.158 14.5449 126.724 14.6849 127.359 14.8965C127.438 14.9211 127.519 14.9088 127.581 14.862C127.647 14.8153 127.683 14.7403 127.683 14.6609V11.811C127.683 11.702 127.615 11.6057 127.508 11.5735C126.839 11.3742 125.983 11.1697 124.697 11.1697C121.576 11.1697 119.922 12.9287 119.922 16.2549V16.9706H118.297C118.162 16.9706 118.049 17.0819 118.049 17.2182V20.1397C118.049 20.2761 118.162 20.3876 118.297 20.3876H119.922V31.9871C119.922 32.1256 120.035 32.2353 120.17 32.2353H123.551C123.689 32.2353 123.799 32.1256 123.799 31.9871V20.3884H126.957L131.795 31.9871C131.246 33.2044 130.705 33.4473 129.969 33.4473C129.373 33.4473 128.744 33.2697 128.104 32.9171C128.044 32.8857 127.97 32.8805 127.908 32.8988C127.842 32.9223 127.788 32.9693 127.762 33.032L126.615 35.5476C126.56 35.6677 126.607 35.8062 126.722 35.8689C127.918 36.5167 128.997 36.7936 130.332 36.7936C132.829 36.7936 134.211 35.6285 135.426 32.4991L141.293 17.3387C141.324 17.2624 141.314 17.1762 141.267 17.1085C141.222 17.0414 141.146 17.0009 141.065 17.0009H137.544C137.437 17.0009 137.343 17.068 137.309 17.167L133.702 27.468L129.752 17.1602C129.715 17.0644 129.624 17.0009 129.522 17.0009H123.744V17.0001ZM116.226 16.9852H112.843C112.707 16.9852 112.595 17.0965 112.595 17.2331V31.9871C112.595 32.1256 112.707 32.2353 112.843 32.2353H116.226C116.362 32.2353 116.474 32.1256 116.474 31.9871V17.2342C116.474 17.0976 116.364 16.9863 116.226 16.9863V16.9852ZM114.554 10.2669C113.214 10.2669 112.127 11.3515 112.127 12.6913C112.127 14.0319 113.214 15.1178 114.554 15.1178C115.894 15.1178 116.978 14.0319 116.978 12.6913C116.978 11.3517 115.892 10.2669 114.554 10.2669ZM144.182 21.7293C142.844 21.7293 141.802 20.6543 141.802 19.349C141.802 18.0437 142.857 16.9565 144.195 16.9565C145.532 16.9565 146.575 18.0312 146.575 19.3354C146.575 20.6407 145.519 21.7293 144.182 21.7293ZM144.195 17.1932C142.975 17.1932 142.053 18.1623 142.053 19.349C142.053 20.5352 142.97 21.4913 144.182 21.4913C145.402 21.4913 146.324 20.5229 146.324 19.3354C146.324 18.1492 145.407 17.1932 144.195 17.1932ZM144.723 19.5802L145.397 20.5227H144.827L144.221 19.658H143.701V20.5227H143.226V18.0244H144.339C144.921 18.0244 145.302 18.3214 145.302 18.8213C145.305 19.2309 145.067 19.4812 144.725 19.5802H144.723ZM144.32 18.453H143.701V19.2432H144.32C144.629 19.2432 144.814 19.092 144.814 18.8477C144.814 18.5907 144.629 18.453 144.32 18.453Z" fill="#E6E6E6"/>
</svg>
