<svg width="8" height="9" viewBox="0 0 8 9" fill="none" xmlns="http://www.w3.org/2000/svg">
<path fill-rule="evenodd" clip-rule="evenodd" d="M0.0153551 8.27247C0.87524 8.3498 0.675624 8.257 1.32054 7.54555L2.47217 6.19997C2.54894 6.10717 2.57965 6.06077 2.67178 5.96797L3.43954 5.08639C3.51631 5.17919 3.63916 5.38025 3.71593 5.47305L5.52783 8.14874C5.65067 8.31887 5.77351 8.27247 6.11132 8.27247H8C7.90787 8.07141 7.46257 7.46822 7.29367 7.20529L4.91363 3.72534C4.72937 3.47788 4.76008 3.50882 5.03647 3.19949C5.06718 3.13762 5.09789 3.13762 5.14395 3.07576C5.60461 2.47257 6.44914 1.59098 6.89443 1.01872C7.06334 0.786727 7.66219 0.168071 7.72361 0.0134067C7.09405 0.0134067 7.07869 -0.125791 6.6334 0.492865C6.51056 0.647529 6.37236 0.771261 6.26487 0.910458L5.26679 2.08591C5.23608 2.11684 5.22073 2.14777 5.17466 2.19417C5.09789 2.28697 5.06718 2.33337 5.00576 2.4107L4.45297 3.02936C4.3762 2.96749 2.80998 0.647529 2.54894 0.276336C2.31862 -0.0639254 2.38004 0.0134067 1.87332 0.0134067C1.25912 0.0134067 0.629559 0.0134067 0 0.0134067C0.0767754 0.199004 0.245681 0.3846 0.353167 0.570197L1.45873 2.16324C1.9501 2.87469 2.4261 3.61708 2.91747 4.31307C3.19386 4.71519 3.08637 4.6224 2.68714 5.10186C2.65643 5.14825 2.64107 5.17919 2.59501 5.22559L1.24376 6.80316C1.21305 6.84956 1.18234 6.86503 1.13628 6.91143C1.09021 6.95782 1.09021 6.98876 1.04415 7.03516C0.90595 7.18982 0.0307102 8.17967 0.0153551 8.27247ZM5.94242 7.74661L7.01727 7.76208C6.95585 7.60741 6.78695 7.39088 6.67946 7.25169L4.9904 4.80799C4.08445 3.52428 3.19386 2.1787 2.28791 0.910458C1.98081 0.477399 2.14971 0.539265 0.96737 0.554731C1.01344 0.662996 1.21305 0.925925 1.27447 1.01872L2.21113 2.3643C2.77927 3.23042 3.4856 4.17387 4.0691 5.05546L5.94242 7.74661Z" fill="#FCFCFE"/>
</svg>
