<svg width="101" height="46" viewBox="0 0 101 46" fill="none" xmlns="http://www.w3.org/2000/svg">
<path d="M0.902954 35.8698L11.168 19.8971H2.11898C2.0423 19.437 2.00943 18.9331 2.00943 18.3744C2.00943 17.8375 2.0423 17.3446 2.11898 16.8954H16.7661L16.9523 17.3884L6.61062 33.394H16.306C16.3827 33.8979 16.4155 34.4238 16.4155 34.9496C16.4155 35.4535 16.3827 35.9356 16.306 36.3957H1.08919L0.902954 35.8698Z" fill="#E6E6E6"/>
<path d="M30.5259 23.5454C30.5259 22.0446 30.1425 21.0148 29.3866 20.4232C28.6307 19.8426 27.5242 19.5468 26.0781 19.5468C25.1907 19.5468 24.3581 19.6125 23.5913 19.7549C22.8135 19.8973 22.0685 20.0726 21.3235 20.3027C20.8415 19.4701 20.6005 18.4622 20.6005 17.301C21.466 17.0271 22.4081 16.808 23.4489 16.6546C24.4896 16.5012 25.4865 16.4245 26.4506 16.4245C28.9812 16.4245 30.9094 17.0052 32.2349 18.1555C33.5496 19.3058 34.2178 21.1572 34.2178 23.6878V35.892C33.3305 36.0892 32.2569 36.3083 30.986 36.5164C29.7152 36.7355 28.4225 36.8341 27.1079 36.8341C25.87 36.8341 24.7416 36.7246 23.7447 36.4945C22.7477 36.2644 21.8932 35.9029 21.1921 35.388C20.491 34.8841 19.9541 34.2377 19.5707 33.4489C19.1873 32.6602 19.001 31.7071 19.001 30.6006C19.001 29.516 19.2201 28.552 19.6693 27.7303C20.1075 26.9087 20.7101 26.2185 21.4769 25.6817C22.2328 25.1339 23.1092 24.7286 24.1062 24.4657C25.0921 24.2027 26.1329 24.0603 27.2284 24.0603C28.0391 24.0603 28.7074 24.0822 29.2223 24.1151C29.7372 24.148 30.1754 24.2027 30.5369 24.2466V23.5454H30.5259ZM30.5259 27.2373C30.1425 27.1826 29.6605 27.1387 29.0798 27.084C28.4992 27.0292 28.0062 27.0073 27.6009 27.0073C26.0233 27.0073 24.8292 27.3031 24.0076 27.8837C23.1859 28.4643 22.7696 29.3517 22.7696 30.5458C22.7696 31.3017 22.9121 31.9043 23.1859 32.3315C23.4598 32.7588 23.8104 33.0874 24.2267 33.3175C24.643 33.5475 25.1031 33.69 25.618 33.7338C26.1219 33.7886 26.604 33.8105 27.0641 33.8105C27.6447 33.8105 28.2472 33.7776 28.8717 33.7119C29.4961 33.6461 30.0439 33.5585 30.5259 33.427V27.2373Z" fill="#E6E6E6"/>
<path d="M38.326 16.8962C38.5779 16.8414 38.8409 16.8086 39.1038 16.7867C39.3667 16.7648 39.6406 16.7538 39.9254 16.7538C40.1774 16.7538 40.4403 16.7648 40.7252 16.7867C40.999 16.8086 41.2729 16.8524 41.5249 16.8962C41.5468 16.951 41.5797 17.1044 41.6235 17.3673C41.6563 17.6302 41.7002 17.9151 41.733 18.2218C41.7659 18.5286 41.8097 18.8134 41.8426 19.0982C41.8755 19.3831 41.8974 19.5583 41.8974 19.635C42.1493 19.2297 42.4561 18.8353 42.8066 18.4519C43.1572 18.0684 43.5845 17.7288 44.0774 17.4221C44.5704 17.1153 45.1291 16.8743 45.7536 16.699C46.378 16.5237 47.0682 16.4361 47.8241 16.4361C48.9635 16.4361 50.0261 16.6223 51.0011 17.0058C51.9762 17.3892 52.8088 17.9698 53.5099 18.7696C54.211 19.5693 54.7478 20.5881 55.1422 21.8151C55.5366 23.0421 55.7338 24.4991 55.7338 26.1753C55.7338 29.5276 54.8245 32.1459 53.0169 34.0302C51.1983 35.9145 48.6348 36.8676 45.3154 36.8676C44.7567 36.8676 44.187 36.8347 43.6064 36.758C43.0257 36.6814 42.5108 36.5828 42.0836 36.4513V45.3908C41.7769 45.4455 41.4592 45.4784 41.1086 45.5003C40.769 45.5222 40.4513 45.5332 40.1774 45.5332C39.9035 45.5332 39.5858 45.5222 39.2462 45.5003C38.9066 45.4784 38.5889 45.4346 38.315 45.3908V16.8962H38.326ZM42.0946 33.2086C42.5766 33.3838 43.0696 33.5153 43.5735 33.592C44.0774 33.6687 44.7348 33.7015 45.5564 33.7015C46.4657 33.7015 47.3092 33.5591 48.0651 33.2633C48.8211 32.9675 49.4784 32.5184 50.0261 31.9158C50.5739 31.3023 51.0011 30.5355 51.3188 29.6152C51.6365 28.695 51.7899 27.5885 51.7899 26.3287C51.7899 24.302 51.4174 22.6915 50.6725 21.4974C49.9275 20.3033 48.7005 19.7117 47.0025 19.7117C46.3671 19.7117 45.7645 19.8213 45.173 20.0513C44.5923 20.2814 44.0665 20.621 43.6173 21.0811C43.1572 21.5412 42.7957 22.1109 42.5108 22.812C42.226 23.5132 42.0946 24.3348 42.0946 25.2989V33.2086Z" fill="#E6E6E6"/>
<path d="M60.4226 19.8533H57.9467C57.892 19.6452 57.8591 19.4151 57.8372 19.1522C57.8153 18.8892 57.8043 18.6263 57.8043 18.3744C57.8043 18.1224 57.8153 17.8595 57.8372 17.5965C57.8591 17.3336 57.9029 17.0926 57.9467 16.8954H64.1145V36.4066C63.8406 36.4614 63.5229 36.4943 63.1833 36.5162C62.8437 36.5381 62.526 36.5491 62.2521 36.5491C62.0002 36.5491 61.7044 36.5381 61.3538 36.5162C61.0142 36.4943 60.6965 36.4505 60.4226 36.4066V19.8533Z" fill="#E6E6E6"/>
<path d="M72.2104 27.5772C72.2652 29.7025 72.8129 31.2691 73.8646 32.2551C74.9163 33.2411 76.472 33.7341 78.5206 33.7341C80.3173 33.7341 82.0372 33.4164 83.6586 32.781C83.8667 33.1644 84.0311 33.6245 84.1516 34.1723C84.2831 34.72 84.3488 35.2568 84.3816 35.7936C83.549 36.1442 82.6288 36.4181 81.6209 36.5934C80.624 36.7687 79.5066 36.8563 78.2906 36.8563C76.5158 36.8563 74.993 36.6043 73.7222 36.1113C72.4514 35.6184 71.4107 34.9172 70.589 34.0189C69.7674 33.1206 69.1649 32.0579 68.7814 30.82C68.398 29.593 68.2118 28.2455 68.2118 26.7665C68.2118 25.3204 68.398 23.973 68.7595 22.7131C69.121 21.4533 69.6907 20.3687 70.4466 19.4375C71.2025 18.5173 72.1666 17.7723 73.3169 17.2355C74.4672 16.6877 75.8366 16.4139 77.4032 16.4139C78.7507 16.4139 79.9229 16.6439 80.9417 17.104C81.9605 17.5642 82.8041 18.1886 83.4943 18.9883C84.1735 19.7881 84.6993 20.7412 85.0499 21.8367C85.4005 22.9432 85.5867 24.1373 85.5867 25.43C85.5867 25.7806 85.5758 26.164 85.5429 26.5474C85.521 26.9418 85.4881 27.2814 85.4662 27.5553H72.2104V27.5772ZM81.8729 24.7617C81.8729 24.0496 81.7743 23.3704 81.5881 22.7241C81.4018 22.0777 81.117 21.519 80.7555 21.037C80.383 20.5549 79.9229 20.1715 79.3532 19.8757C78.7835 19.5799 78.1043 19.4375 77.3155 19.4375C75.7708 19.4375 74.5877 19.9086 73.7551 20.8398C72.9334 21.7819 72.4295 23.0856 72.2542 24.7617H81.8729Z" fill="#E6E6E6"/>
<path d="M89.7498 16.8954C90.0237 16.8406 90.2975 16.8078 90.5495 16.7858C90.8015 16.7639 91.0644 16.753 91.3492 16.753C91.6231 16.753 91.908 16.7639 92.1818 16.7858C92.4557 16.8078 92.7186 16.8516 92.9377 16.8954C93.0144 17.2788 93.0911 17.7718 93.1678 18.3963C93.2445 19.0207 93.2774 19.5466 93.2774 19.9738C93.8142 19.1084 94.5153 18.3634 95.3917 17.728C96.2681 17.0926 97.3856 16.7749 98.755 16.7749C98.9631 16.7749 99.1713 16.7858 99.3794 16.7968C99.5985 16.8078 99.7738 16.8297 99.9272 16.8516C99.9819 17.0816 100.015 17.3227 100.037 17.5746C100.059 17.8266 100.07 18.0895 100.07 18.3744C100.07 18.6811 100.048 18.9988 100.015 19.3275C99.9819 19.6561 99.9272 19.9738 99.8833 20.2806C99.6752 20.2258 99.467 20.2039 99.2589 20.2039C99.0398 20.2039 98.8755 20.2039 98.744 20.2039C98.0648 20.2039 97.4075 20.3025 96.783 20.4887C96.1586 20.675 95.5999 21.0146 95.1069 21.4966C94.6139 21.9786 94.2195 22.6359 93.9237 23.4795C93.6279 24.3121 93.4855 25.3967 93.4855 26.7113V36.4067C93.2116 36.4614 92.8939 36.4943 92.5543 36.5162C92.2147 36.5381 91.897 36.5491 91.6231 36.5491C91.3492 36.5491 91.0315 36.5381 90.6919 36.5162C90.3523 36.4943 90.0237 36.4505 89.7169 36.4067V16.8954H89.7498Z" fill="#E6E6E6"/>
<path d="M67.6967 5.41476H64.0158L66.6231 2.80741C66.415 2.52258 66.1849 2.2487 65.9439 1.99673C65.6919 1.74476 65.429 1.5147 65.1332 1.3175L62.5259 3.92485V0.243892C62.1862 0.189116 61.8357 0.15625 61.4742 0.15625H61.4632C61.1017 0.15625 60.7511 0.189116 60.4115 0.243892V3.92485L57.8042 1.3175C57.5193 1.52565 57.2454 1.75571 56.9935 1.99673C56.7415 2.2487 56.5224 2.51162 56.3142 2.80741L58.9325 5.41476H55.2516C55.2516 5.41476 55.164 6.10493 55.164 6.46646C55.164 6.82798 55.1968 7.17855 55.2516 7.51816H58.9325L56.3252 10.1255C56.7305 10.6952 57.2345 11.1991 57.8151 11.6154L60.4225 9.00807V12.689C60.7621 12.7438 61.1126 12.7767 61.4742 12.7767H61.4851C61.8466 12.7767 62.1972 12.7438 62.5368 12.689V9.00807L65.1441 11.6154C65.429 11.4073 65.7029 11.1772 65.9548 10.9362C66.2068 10.6842 66.4369 10.4213 66.6341 10.1255L64.0267 7.51816H67.7077C67.7625 7.17855 67.7953 6.82798 67.7953 6.46646V6.4555C67.7844 6.10493 67.7625 5.75437 67.6967 5.41476ZM63.0517 6.47741C63.0517 6.94849 62.9641 7.39765 62.8107 7.81395C62.3944 7.96732 61.9452 8.05496 61.4742 8.05496C61.0031 8.05496 60.5539 7.96732 60.1376 7.81395C59.9842 7.39765 59.8966 6.94849 59.8966 6.47741V6.46646C59.8966 5.99538 59.9842 5.54622 60.1376 5.12992C60.5539 4.97655 61.0031 4.88891 61.4742 4.88891C61.9452 4.88891 62.3944 4.97655 62.8107 5.12992C62.9641 5.54622 63.0517 5.99538 63.0517 6.47741Z" fill="#E6E6E6"/>
</svg>
