<svg width="103" height="24" viewBox="0 0 103 24" fill="none" xmlns="http://www.w3.org/2000/svg">
<path fill-rule="evenodd" clip-rule="evenodd" d="M83.1668 7.45805C83.5566 8.13059 83.6842 8.89576 83.7263 9.75598L83.7816 10.9025V18.92L83.8381 20.0678C83.9512 21.9422 85.3336 23.3282 87.2225 23.4461L88.3642 23.5026V10.9025L88.4208 9.75598C88.4677 8.90538 88.594 8.12578 88.9898 7.44843C89.3932 6.75368 89.9722 6.17727 90.6687 5.77706C91.3653 5.37686 92.1549 5.16695 92.9582 5.16841C93.7615 5.16988 94.5504 5.38266 95.2455 5.7854C95.9405 6.18813 96.5175 6.76665 96.9183 7.46287C97.3081 8.1354 97.4296 8.91501 97.4765 9.75598L97.533 10.8989V18.92L97.5896 20.0678C97.7075 21.9518 99.079 23.3378 100.974 23.4461L102.116 23.5026V9.75598C102.116 7.3252 101.15 4.99392 99.4318 3.27476C97.7133 1.5556 95.3824 0.589304 92.9516 0.588347C91.6506 0.586975 90.3643 0.863261 89.1786 1.39875C87.9929 1.93424 86.9351 2.71659 86.0759 3.69355C85.2163 2.71698 84.1585 1.93481 82.9729 1.39916C81.7873 0.863518 80.5012 0.586696 79.2002 0.587144C77.2969 0.587144 75.5307 1.16463 74.0678 2.162C73.1751 1.16583 71.1779 0.587144 70.0314 0.587144V23.5026L71.1779 23.4461C73.0957 23.3197 74.4816 21.9711 74.5562 20.0678L74.6176 18.92V10.9025L74.6741 9.75598C74.7222 8.89095 74.8426 8.13059 75.2336 7.45324C75.6372 6.75892 76.216 6.18265 76.912 5.78195C77.6081 5.38126 78.3971 5.17017 79.2002 5.16976C80.0039 5.16993 80.7935 5.38144 81.4897 5.78308C82.1859 6.18471 82.7643 6.76235 83.1668 7.45805ZM4.72104 23.4473L5.86759 23.5026H23.0539L22.9973 22.3597C22.8421 20.4756 21.5079 19.0993 19.6178 18.9765L18.4713 18.92H8.1607L21.9073 5.16855L21.8508 4.02681C21.7618 2.1235 20.371 0.748359 18.4713 0.643689L17.3247 0.591956L0.138428 0.587144L0.194973 1.7337C0.345361 3.59971 1.69885 5.00493 3.57328 5.11321L4.72104 5.16976H15.0316L1.28498 18.9212L1.34153 20.0678C1.45462 21.9566 2.81773 23.3246 4.72104 23.4461V23.4473ZM65.533 3.94139C66.5971 5.00531 67.4413 6.26845 68.0172 7.65865C68.5931 9.04886 68.8895 10.5389 68.8895 12.0437C68.8895 13.5485 68.5931 15.0385 68.0172 16.4287C67.4413 17.8189 66.5971 19.082 65.533 20.146C63.383 22.2942 60.4681 23.5009 57.4289 23.5009C54.3896 23.5009 51.4747 22.2942 49.3248 20.146C44.8505 15.6716 44.8505 8.41572 49.3248 3.94139C50.388 2.87782 51.6502 2.03408 53.0395 1.45835C54.4288 0.882621 55.9178 0.586175 57.4217 0.58594C58.9279 0.584894 60.4197 0.880818 61.8115 1.45678C63.2033 2.03275 64.4679 2.87746 65.533 3.94259V3.94139ZM62.2906 7.18615C63.5794 8.4759 64.3033 10.2246 64.3033 12.0479C64.3033 13.8712 63.5794 15.6199 62.2906 16.9096C61.0009 18.1984 59.2522 18.9223 57.4289 18.9223C55.6056 18.9223 53.8569 18.1984 52.5672 16.9096C51.2784 15.6199 50.5544 13.8712 50.5544 12.0479C50.5544 10.2246 51.2784 8.4759 52.5672 7.18615C53.8569 5.89738 55.6056 5.17343 57.4289 5.17343C59.2522 5.17343 61.0009 5.89738 62.2906 7.18615ZM33.3741 0.58594C34.878 0.586333 36.3671 0.882968 37.7564 1.45891C39.1457 2.03485 40.4079 2.87881 41.471 3.94259C45.9465 8.41572 45.9465 15.6728 41.471 20.146C39.321 22.2942 36.4061 23.5009 33.3669 23.5009C30.3276 23.5009 27.4127 22.2942 25.2628 20.146C20.7884 15.6716 20.7884 8.41572 25.2628 3.94139C26.326 2.87782 27.5882 2.03408 28.9775 1.45835C30.3667 0.882621 31.8558 0.586175 33.3596 0.58594H33.3741ZM38.2286 7.18375C39.5177 8.47355 40.2419 10.2225 40.2419 12.0461C40.2419 13.8697 39.5177 15.6186 38.2286 16.9084C36.9388 18.1972 35.1902 18.9211 33.3669 18.9211C31.5436 18.9211 29.7949 18.1972 28.5051 16.9084C27.2164 15.6187 26.4924 13.87 26.4924 12.0467C26.4924 10.2234 27.2164 8.4747 28.5051 7.18495C29.7949 5.89618 31.5436 5.17223 33.3669 5.17223C35.1902 5.17223 36.9388 5.89618 38.2286 7.18495V7.18375Z" fill="#E6E6E6"/>
</svg>
